<svg xmlns="http://www.w3.org/2000/svg" viewBox="0 0 255.1 255.1" xml:space="preserve"><circle cx="127.6" cy="127.6" r="121.6" fill="#4cd1c0"/><path d="m80.008 106.491 43.435 21.133-43.435 21.085-43.436-21.08zm95.184 0-43.435 21.133 43.435 21.085 43.436-21.08zm0-54.364-43.435 22.862v44.766l.33-.164.617-.307 42.476-21.136-.001-.001.013-.006zm0 150.946-43.435-22.862v-44.766l.33.164.617.307 42.476 21.136-.001.001.013.006zM80.008 52.127l43.435 22.862v44.766l-.33-.164-.617-.307L80.02 98.148l.001-.001-.013-.006zm0 150.946 43.435-22.862v-44.766l-.33.164-.617.307-42.476 21.136.001.001-.013.006z" fill="#fff"/></svg>